<svg width="21" height="21" viewBox="0 0 21 21" fill="none" xmlns="http://www.w3.org/2000/svg">
<path d="M19.6874 1.32707C19.1187 0.758321 18.1999 0.758321 17.6312 1.32707L10.4999 8.44374L3.36868 1.31249C2.79993 0.743738 1.88118 0.743738 1.31243 1.31249C0.743677 1.88124 0.743677 2.79999 1.31243 3.36874L8.44368 10.5L1.31243 17.6312C0.743677 18.2 0.743677 19.1187 1.31243 19.6875C1.88118 20.2562 2.79993 20.2562 3.36868 19.6875L10.4999 12.5562L17.6312 19.6875C18.1999 20.2562 19.1187 20.2562 19.6874 19.6875C20.2562 19.1187 20.2562 18.2 19.6874 17.6312L12.5562 10.5L19.6874 3.36874C20.2416 2.81457 20.2416 1.88124 19.6874 1.32707Z" fill="#303733"/>
</svg>
