<svg width="54" height="54" viewBox="0 0 54 54" fill="none" xmlns="http://www.w3.org/2000/svg">
<rect x="0.5" y="0.5" width="53" height="53" rx="11.5" fill="white" stroke="#E8ECF2"/>
<g clip-path="url(#clip0_12_89)">
<path d="M26 33H28C28.55 33 29 32.55 29 32C29 31.45 28.55 31 28 31H26C25.45 31 25 31.45 25 32C25 32.55 25.45 33 26 33ZM18 22C18 22.55 18.45 23 19 23H35C35.55 23 36 22.55 36 22C36 21.45 35.55 21 35 21H19C18.45 21 18 21.45 18 22ZM22 28H32C32.55 28 33 27.55 33 27C33 26.45 32.55 26 32 26H22C21.45 26 21 26.45 21 27C21 27.55 21.45 28 22 28Z" fill="#7D8FAB"/>
</g>
<defs>
<clipPath id="clip0_12_89">
<rect width="24" height="24" fill="white" transform="translate(15 15)"/>
</clipPath>
</defs>
</svg>
