<svg width="11" height="12" viewBox="0 0 11 12" fill="none" xmlns="http://www.w3.org/2000/svg">
<path d="M0.96875 5.93359C0.96875 5.37051 1.42521 4.91405 1.98828 4.91405H9.24933C9.8124 4.91405 10.2689 5.37051 10.2689 5.93359C10.2689 6.49666 9.8124 6.95312 9.24933 6.95312H1.98828C1.42521 6.95312 0.96875 6.49666 0.96875 5.93359Z" fill="white"/>
<path d="M5.61875 11.0312C5.10512 11.0313 4.68874 10.6149 4.68874 10.1012L4.68874 1.76595C4.68874 1.25232 5.10512 0.835938 5.61875 0.835938C6.13238 0.835937 6.54876 1.25232 6.54876 1.76595L6.54876 10.1012C6.54876 10.6149 6.13238 11.0312 5.61875 11.0312Z" fill="white"/>
</svg>
